<svg xmlns="http://www.w3.org/2000/svg" viewBox="0 0 64 64" width="64px" height="64px"><linearGradient id="NdBojpFPGepIdm0FkkBmPa" x1="35.91" x2="35.91" y1="17.5" y2="43.75" gradientUnits="userSpaceOnUse" spreadMethod="reflect"><stop offset="0" stop-color="#6dc7ff"/><stop offset="1" stop-color="#e6abff"/></linearGradient><path fill="url(#NdBojpFPGepIdm0FkkBmPa)" d="M41.82,31.95l-3.15,1.73l-8.5-14.31c-0.35-0.57-0.14-1.31,0.44-1.64l1-0.57 c0.59-0.33,1.35-0.14,1.69,0.44L41.82,31.95z"/><linearGradient id="NdBojpFPGepIdm0FkkBmPb" x1="41.465" x2="41.465" y1="17.5" y2="43.75" gradientUnits="userSpaceOnUse" spreadMethod="reflect"><stop offset="0" stop-color="#6dc7ff"/><stop offset="1" stop-color="#e6abff"/></linearGradient><path fill="url(#NdBojpFPGepIdm0FkkBmPb)" d="M43.75 35.19L40.59 36.92 39.18 34.54 42.34 32.81z"/><linearGradient id="NdBojpFPGepIdm0FkkBmPc" x1="19.356" x2="19.356" y1="17.5" y2="43.75" gradientUnits="userSpaceOnUse" spreadMethod="reflect"><stop offset="0" stop-color="#6dc7ff"/><stop offset="1" stop-color="#e6abff"/></linearGradient><path fill="url(#NdBojpFPGepIdm0FkkBmPc)" d="M18.55,37.98l3.16,1.82l-0.01,0.02l-4.29,4.11c-0.08,0.08-0.2,0.09-0.29,0.04 c-0.09-0.06-0.14-0.16-0.11-0.27l1.53-5.7L18.55,37.98z"/><linearGradient id="NdBojpFPGepIdm0FkkBmPd" x1="24.24" x2="24.24" y1="17.5" y2="43.75" gradientUnits="userSpaceOnUse" spreadMethod="reflect"><stop offset="0" stop-color="#6dc7ff"/><stop offset="1" stop-color="#e6abff"/></linearGradient><path fill="url(#NdBojpFPGepIdm0FkkBmPd)" d="M26.26 24.98L29.42 26.8 22.22 38.95 19.06 37.12z"/><linearGradient id="NdBojpFPGepIdm0FkkBmPe" x1="28.884" x2="28.884" y1="17.5" y2="43.75" gradientUnits="userSpaceOnUse" spreadMethod="reflect"><stop offset="0" stop-color="#6dc7ff"/><stop offset="1" stop-color="#e6abff"/></linearGradient><path fill="url(#NdBojpFPGepIdm0FkkBmPe)" d="M30.83,24.42l-0.9,1.52l-3.16-1.83l0.9-1.52c0.34-0.57,1.08-0.76,1.66-0.43l1.07,0.62 C30.98,23.12,31.17,23.85,30.83,24.42z"/><linearGradient id="NdBojpFPGepIdm0FkkBmPf" x1="43.84" x2="43.84" y1="17.5" y2="43.75" gradientUnits="userSpaceOnUse" spreadMethod="reflect"><stop offset="0" stop-color="#6dc7ff"/><stop offset="1" stop-color="#e6abff"/></linearGradient><path fill="url(#NdBojpFPGepIdm0FkkBmPf)" d="M43.426,36.553c-0.511,0.287-1.273,0.732-1.72,0.997c-0.841,0.498-0.192,1.953-0.001,2.268 c1.088,1.803,2.211,1.55,3.059,2.828c0.464,0.699,0.332,1.008,0.479,1.239c0.055,0.087,0.241,0.169,0.313,0.07 c1.306-1.786,0.921-4.86-0.025-6.228C45.089,37.088,44.29,36.069,43.426,36.553"/><linearGradient id="NdBojpFPGepIdm0FkkBmPg" x1="44.915" x2="44.915" y1="17.5" y2="43.75" gradientUnits="userSpaceOnUse" spreadMethod="reflect"><stop offset="0" stop-color="#6dc7ff"/><stop offset="1" stop-color="#e6abff"/></linearGradient><path fill="url(#NdBojpFPGepIdm0FkkBmPg)" d="M48 30L48 34 44.21 34 41.83 30z"/><linearGradient id="NdBojpFPGepIdm0FkkBmPh" x1="32" x2="32" y1="17.5" y2="43.75" gradientUnits="userSpaceOnUse" spreadMethod="reflect"><stop offset="0" stop-color="#6dc7ff"/><stop offset="1" stop-color="#e6abff"/></linearGradient><path fill="url(#NdBojpFPGepIdm0FkkBmPh)" d="M37.69 34L26.31 34 28.68 30 35.32 30z"/><linearGradient id="NdBojpFPGepIdm0FkkBmPi" x1="19.06" x2="19.06" y1="17.5" y2="43.75" gradientUnits="userSpaceOnUse" spreadMethod="reflect"><stop offset="0" stop-color="#6dc7ff"/><stop offset="1" stop-color="#e6abff"/></linearGradient><path fill="url(#NdBojpFPGepIdm0FkkBmPi)" d="M22.12 30L19.75 34 16 34 16 30z"/><linearGradient id="NdBojpFPGepIdm0FkkBmPj" x1="32" x2="32" y1="6" y2="58" gradientUnits="userSpaceOnUse" spreadMethod="reflect"><stop offset="0" stop-color="#1a6dff"/><stop offset="1" stop-color="#c822ff"/></linearGradient><path fill="none" stroke="url(#NdBojpFPGepIdm0FkkBmPj)" stroke-miterlimit="10" stroke-width="2" d="M32 7A25 25 0 1 0 32 57A25 25 0 1 0 32 7Z"/></svg>